<svg width="73" height="71" viewBox="0 0 73 71" fill="none" xmlns="http://www.w3.org/2000/svg">
<g filter="url(#filter0_d_561_11370)">
<path d="M67.5 31.5C67.5 48.0247 53.6654 61.5 36.5 61.5C19.3346 61.5 5.5 48.0247 5.5 31.5C5.5 14.9753 19.3346 1.5 36.5 1.5C53.6654 1.5 67.5 14.9753 67.5 31.5Z" fill="white" stroke="#BC4B56" stroke-width="3"/>
<path d="M46.3696 19.6885C43.6402 17.3471 40.0257 16.0576 36.1916 16.0576C32.3576 16.0576 28.743 17.3471 26.0137 19.6885C23.2844 22.0299 21.7812 25.1307 21.7812 28.4199V35.1954C21.7812 35.2073 21.7826 35.2189 21.7833 35.2306C21.8274 37.7204 24.2005 39.7344 27.1131 39.7344C27.517 39.7344 27.8445 39.4535 27.8445 39.107V31.2139C27.8445 30.8673 27.517 30.5864 27.1131 30.5864C25.5908 30.5864 24.2165 31.1374 23.2441 32.0181V28.4199C23.2441 22.2953 29.0524 17.3126 36.1916 17.3126C43.3308 17.3126 49.1391 22.2953 49.1391 28.4199V32.0181C48.1667 31.1374 46.7925 30.5864 45.2702 30.5864C44.8662 30.5864 44.5388 30.8673 44.5388 31.2139V39.107C44.5388 39.4535 44.8662 39.7344 45.2702 39.7344C48.1827 39.7344 50.5559 37.7204 50.6 35.2306C50.6007 35.2189 50.602 35.2073 50.602 35.1954V28.4199C50.602 25.1307 49.0989 22.0299 46.3696 19.6885ZM26.3816 31.9009V38.4199C24.5968 38.1258 23.2441 36.776 23.2441 35.1604C23.2441 33.5448 24.5968 32.195 26.3816 31.9009ZM46.0016 38.4199V31.9009C47.7864 32.195 49.1391 33.5448 49.1391 35.1604C49.1391 36.7761 47.7864 38.1258 46.0016 38.4199Z" fill="#BC4B56"/>
<path d="M48.8358 40.2712C48.4666 40.1302 48.0343 40.2727 47.8701 40.5893C47.6566 41.0009 47.4148 41.4002 47.1515 41.7762C46.9434 42.0733 47.0554 42.4588 47.4016 42.6373C47.5195 42.6981 47.6495 42.727 47.7778 42.727C48.0261 42.727 48.2682 42.6185 48.4054 42.4226C48.6994 42.0029 48.969 41.5577 49.2067 41.0996C49.3709 40.783 49.2049 40.4121 48.8358 40.2712Z" fill="#BC4B56"/>
<path d="M46.8658 43.2634C46.5656 43.0314 46.103 43.0521 45.8328 43.3095C43.9333 45.1183 41.3998 46.1386 38.4713 46.2836V44.7644C38.4713 44.4178 38.1439 44.1369 37.7399 44.1369H35.2158C34.8118 44.1369 34.4844 44.4178 34.4844 44.7644V46.9298C34.4844 47.2763 34.8118 47.5573 35.2158 47.5573H37.7399C41.4043 47.5573 44.5786 46.3789 46.9196 44.1496C47.19 43.8921 47.1659 43.4953 46.8658 43.2634ZM37.0085 46.3023H35.9473V45.3919H37.0085V46.3023Z" fill="#BC4B56"/>
</g>
<defs>
<filter id="filter0_d_561_11370" x="0" y="0" width="73" height="71" filterUnits="userSpaceOnUse" color-interpolation-filters="sRGB">
<feFlood flood-opacity="0" result="BackgroundImageFix"/>
<feColorMatrix in="SourceAlpha" type="matrix" values="0 0 0 0 0 0 0 0 0 0 0 0 0 0 0 0 0 0 127 0" result="hardAlpha"/>
<feOffset dy="4"/>
<feGaussianBlur stdDeviation="2"/>
<feComposite in2="hardAlpha" operator="out"/>
<feColorMatrix type="matrix" values="0 0 0 0 0 0 0 0 0 0 0 0 0 0 0 0 0 0 0.25 0"/>
<feBlend mode="normal" in2="BackgroundImageFix" result="effect1_dropShadow_561_11370"/>
<feBlend mode="normal" in="SourceGraphic" in2="effect1_dropShadow_561_11370" result="shape"/>
</filter>
</defs>
</svg>
