<svg width="118" height="77" viewBox="0 0 118 77" fill="none" xmlns="http://www.w3.org/2000/svg">
<path d="M33.3289 45.7429H6.47555M28.8533 36.0234H2" stroke="white" stroke-width="4" stroke-linecap="round" stroke-linejoin="round"/>
<path d="M79.1177 6.85996C96.4209 6.85996 110.447 21.0017 110.447 38.4481C110.447 55.8945 96.4209 70.0363 79.1177 70.0363C61.8145 70.0363 47.7888 55.8945 47.7888 38.4481C47.7888 21.0017 61.8145 6.85996 79.1177 6.85996ZM79.1177 6.85996V2.00024M62.999 65.535L57.4273 74.8972M112.299 18.715C114.123 16.9436 115.265 14.4725 115.265 11.7194C115.265 6.34945 110.952 2 105.626 2C102.898 2 100.444 3.15418 98.69 4.99359M59.5465 4.99237C57.7897 3.15297 55.3388 2.00121 52.6084 2.00121C47.2825 2.00121 42.9688 6.35066 42.9688 11.7206C42.9688 14.4712 44.1135 16.9448 45.9378 18.7138M93.5772 28.7287L74.2979 48.1675L64.6582 38.4481M100.807 74.896L95.2376 65.5362" stroke="white" stroke-width="4" stroke-linecap="round" stroke-linejoin="round"/>
<rect x="10" y="53" width="30" height="4" rx="2" fill="white"/>
</svg>
