<svg width="223" height="39" viewBox="0 0 223 39" fill="none" xmlns="http://www.w3.org/2000/svg">
<ellipse cx="81" cy="19.5" rx="20" ry="19.5" fill="white"/>
<path d="M89.2995 16.0367C89.3125 16.214 89.3125 16.3914 89.3125 16.5687C89.3237 18.101 89.0237 19.6201 88.4299 21.0378C87.8362 22.4555 86.9605 23.7435 85.8539 24.827C84.7473 25.9105 83.4317 26.7678 81.9837 27.3491C80.5357 27.9304 78.9841 28.2241 77.4191 28.2131C75.1433 28.2191 72.9142 27.5811 71 26.3759C71.3353 26.4122 71.6725 26.4292 72.0098 26.4269C73.8914 26.4315 75.7198 25.8154 77.1999 24.6779C76.3273 24.6621 75.4815 24.3797 74.7808 23.8703C74.0801 23.3608 73.5595 22.6497 73.2918 21.8364C73.553 21.8769 73.817 21.8982 74.0814 21.9C74.4529 21.8991 74.8228 21.8524 75.1823 21.7609C74.2356 21.5735 73.3844 21.0708 72.7734 20.3385C72.1624 19.6061 71.8293 18.6892 71.8307 17.7436V17.6956C72.4099 18.012 73.0573 18.1899 73.7202 18.2149C72.833 17.6355 72.2051 16.7466 71.9646 15.7294C71.7242 14.7122 71.8892 13.6436 72.4261 12.7415C73.4761 14.0068 74.7859 15.0419 76.2707 15.7797C77.7554 16.5175 79.382 16.9416 81.0449 17.0244C80.979 16.716 80.9455 16.4017 80.9449 16.0867C80.9469 15.267 81.2001 14.4668 81.6715 13.7895C82.143 13.1122 82.8112 12.5889 83.5896 12.2874C84.3681 11.9858 85.2211 11.9198 86.0382 12.0979C86.8554 12.2759 87.5993 12.6899 88.1736 13.2863C89.1098 13.1097 90.0075 12.7751 90.8267 12.2976C90.5146 13.2427 89.8613 14.0439 88.9892 14.5512C89.8193 14.4586 90.6306 14.2449 91.3961 13.9173C90.8238 14.7332 90.115 15.4488 89.2995 16.0337V16.0367Z" fill="#962121"/>
<ellipse cx="20" cy="19.5" rx="20" ry="19.5" fill="white"/>
<path d="M25.5256 21.1503L26.1599 17.4828H22.1935V15.1021C22.1657 14.8278 22.2078 14.5515 22.3168 14.2936C22.4258 14.0357 22.5989 13.8029 22.8231 13.6125C23.0474 13.4221 23.3172 13.279 23.6123 13.1937C23.9075 13.1085 24.2205 13.0834 24.5281 13.1202H26.3314V9.99762C25.2712 9.84574 24.1999 9.76298 23.126 9.75C19.859 9.75 17.7239 11.5072 17.7239 14.6864V17.4818H14.0938V21.1493H17.725V30.0168H22.1935V21.1503H25.5256Z" fill="#962121"/>
<ellipse cx="142" cy="19.5" rx="20" ry="19.5" fill="white"/>
<path d="M141.931 14.6886C140.897 14.6886 139.886 14.9934 139.026 15.5644C138.166 16.1354 137.496 16.947 137.1 17.8965C136.705 18.846 136.601 19.8909 136.803 20.8989C137.005 21.9069 137.503 22.8328 138.234 23.5596C138.965 24.2863 139.897 24.7813 140.911 24.9818C141.926 25.1823 142.977 25.0794 143.932 24.686C144.888 24.2927 145.705 23.6267 146.279 22.7721C146.854 21.9176 147.16 20.9129 147.16 19.8851C147.162 19.2024 147.027 18.5261 146.765 17.8951C146.503 17.2641 146.117 16.6907 145.632 16.208C145.146 15.7252 144.569 15.3425 143.934 15.0817C143.299 14.821 142.618 14.6874 141.931 14.6886ZM141.931 23.2627C141.259 23.2627 140.602 23.0646 140.043 22.6935C139.484 22.3224 139.049 21.7948 138.791 21.1777C138.534 20.5605 138.467 19.8814 138.598 19.2262C138.729 18.571 139.053 17.9691 139.528 17.4968C140.003 17.0244 140.609 16.7027 141.268 16.5724C141.928 16.4421 142.611 16.509 143.232 16.7646C143.853 17.0202 144.384 17.4532 144.757 18.0086C145.131 18.5641 145.33 19.2171 145.33 19.8851C145.328 20.7804 144.97 21.6384 144.333 22.2714C143.696 22.9045 142.832 23.2609 141.931 23.2627V23.2627ZM148.593 14.4762C148.593 14.7159 148.521 14.9503 148.387 15.1496C148.253 15.349 148.063 15.5043 147.84 15.5961C147.617 15.6878 147.372 15.7119 147.135 15.6651C146.899 15.6183 146.681 15.5029 146.511 15.3333C146.34 15.1638 146.224 14.9478 146.177 14.7126C146.13 14.4775 146.154 14.2338 146.246 14.0123C146.338 13.7908 146.495 13.6014 146.695 13.4682C146.896 13.335 147.132 13.2639 147.373 13.2639C147.534 13.2633 147.692 13.2943 147.841 13.355C147.989 13.4157 148.124 13.5049 148.237 13.6176C148.351 13.7303 148.441 13.8641 148.502 14.0115C148.563 14.1588 148.595 14.3167 148.594 14.4762H148.593ZM152.051 15.7054C152.085 14.1297 151.493 12.6042 150.404 11.4587C149.249 10.3799 147.715 9.79236 146.13 9.82157C144.446 9.72614 139.4 9.72614 137.716 9.82157C136.132 9.79016 134.598 10.3761 133.443 11.4541C132.358 12.6021 131.77 14.1266 131.802 15.7009C131.706 17.3743 131.706 22.3891 131.802 24.0625C131.769 25.6382 132.361 27.1638 133.45 28.3093C134.605 29.3867 136.138 29.9736 137.722 29.9452C139.406 30.0407 144.452 30.0407 146.136 29.9452C147.722 29.9787 149.257 29.3906 150.409 28.3081C151.493 27.1597 152.082 25.6363 152.051 24.0625C152.152 22.3891 152.152 17.3789 152.051 15.7054ZM149.879 25.8553C149.706 26.2926 149.444 26.6899 149.11 27.0222C148.775 27.3545 148.376 27.6147 147.936 27.7867C146.593 28.3161 143.407 28.1934 141.925 28.1934C140.442 28.1934 137.251 28.307 135.913 27.7867C135.473 27.6147 135.074 27.3545 134.739 27.0222C134.405 26.6899 134.143 26.2926 133.97 25.8553C133.437 24.5215 133.561 21.3552 133.561 19.8817C133.561 18.4082 133.446 15.2373 133.97 13.9081C134.143 13.4708 134.405 13.0735 134.739 12.7412C135.074 12.4089 135.473 12.1487 135.913 11.9767C137.256 11.4473 140.442 11.57 141.925 11.57C143.407 11.57 146.598 11.4564 147.936 11.9767C148.376 12.1487 148.775 12.4089 149.11 12.7412C149.444 13.0735 149.706 13.4708 149.879 13.9081C150.412 15.2419 150.288 18.4082 150.288 19.8817C150.288 21.3552 150.414 24.5283 149.879 25.8553Z" fill="#962121"/>
<ellipse cx="203" cy="19.5" rx="20" ry="19.5" fill="white"/>
<path d="M213.541 15.6175C213.422 15.2022 213.18 14.8218 212.839 14.5145C212.499 14.2072 212.071 13.984 211.601 13.8675C209.881 13.5 203.001 13.5 203.001 13.5C203.001 13.5 196.121 13.5 194.401 13.9025C193.93 14.019 193.503 14.2422 193.162 14.5495C192.821 14.8568 192.579 15.2372 192.461 15.6525C192.146 17.1799 191.992 18.7293 192.001 20.2812C191.989 21.8449 192.143 23.4061 192.461 24.945C192.592 25.3474 192.839 25.7134 193.179 26.0077C193.519 26.302 193.939 26.5146 194.401 26.625C196.121 27.0275 203.001 27.0275 203.001 27.0275C203.001 27.0275 209.881 27.0275 211.601 26.625C212.071 26.5085 212.499 26.2853 212.839 25.978C213.18 25.6707 213.422 25.2903 213.541 24.875C213.853 23.3591 214.007 21.8215 214.001 20.2812C214.012 18.7176 213.858 17.1564 213.541 15.6175V15.6175Z" stroke="#962121" stroke-width="2" stroke-linecap="round" stroke-linejoin="round"/>
<path d="M200.75 23.1424L206.5 20.2812L200.75 17.4199V23.1424Z" stroke="#962121" stroke-width="2" stroke-linecap="round" stroke-linejoin="round"/>
</svg>
