<svg width="101" height="21" viewBox="0 0 101 21" fill="none" xmlns="http://www.w3.org/2000/svg">
<path d="M10.2 11.464L10.766 7.776H7.227V5.382C7.20214 5.10616 7.23973 4.82827 7.33698 4.56895C7.43423 4.30963 7.58864 4.07555 7.78875 3.88409C7.98886 3.69262 8.22953 3.54869 8.49289 3.46298C8.75625 3.37727 9.03553 3.35199 9.31 3.389H10.919V0.249C9.97303 0.0962714 9.01713 0.0130487 8.059 0C5.144 0 3.239 1.767 3.239 4.964V7.775H0V11.463H3.24V20.38H7.227V11.464H10.2Z" fill="white"/>
<path d="M44.923 4.38997C44.0183 4.38997 43.134 4.65823 42.3818 5.16083C41.6296 5.66342 41.0434 6.37779 40.6972 7.21358C40.351 8.04937 40.2604 8.96904 40.4369 9.85631C40.6134 10.7436 41.049 11.5586 41.6887 12.1983C42.3284 12.838 43.1434 13.2736 44.0307 13.4501C44.9179 13.6266 45.8376 13.536 46.6734 13.1898C47.5092 12.8436 48.2235 12.2573 48.7261 11.5051C49.2287 10.753 49.497 9.86862 49.497 8.96397C49.4981 8.36301 49.3805 7.76775 49.151 7.21233C48.9215 6.65691 48.5846 6.15226 48.1597 5.72731C47.7347 5.30237 47.2301 4.96549 46.6746 4.736C46.1192 4.50651 45.524 4.38892 44.923 4.38997ZM44.923 11.937C44.335 11.937 43.7602 11.7626 43.2713 11.4359C42.7824 11.1093 42.4013 10.6449 42.1763 10.1017C41.9513 9.55844 41.8924 8.96067 42.0071 8.38397C42.1218 7.80726 42.405 7.27752 42.8208 6.86174C43.2366 6.44596 43.7663 6.16281 44.343 6.04809C44.9197 5.93338 45.5175 5.99226 46.0607 6.21728C46.604 6.4423 47.0683 6.82335 47.395 7.31226C47.7216 7.80117 47.896 8.37596 47.896 8.96397C47.8944 9.75197 47.5807 10.5072 47.0235 11.0644C46.4663 11.6216 45.711 11.9354 44.923 11.937ZM50.75 4.20297C50.75 4.414 50.6874 4.6203 50.5702 4.79576C50.4529 4.97123 50.2863 5.10799 50.0913 5.18875C49.8964 5.26951 49.6818 5.29064 49.4748 5.24947C49.2679 5.2083 49.0777 5.10668 48.9285 4.95745C48.7793 4.80823 48.6777 4.61811 48.6365 4.41113C48.5953 4.20415 48.6165 3.98961 48.6972 3.79465C48.778 3.59968 48.9147 3.43303 49.0902 3.31579C49.2657 3.19855 49.472 3.13597 49.683 3.13597C49.8233 3.13544 49.9623 3.16267 50.0921 3.21609C50.2218 3.26952 50.3397 3.34808 50.439 3.44725C50.5383 3.54642 50.6169 3.66425 50.6705 3.79395C50.724 3.92365 50.7514 4.06265 50.751 4.20297H50.75ZM53.775 5.28497C53.8045 3.89803 53.2868 2.55523 52.334 1.54697C51.3237 0.597374 49.9823 0.0802535 48.596 0.105969C47.123 0.0219688 42.709 0.0219688 41.236 0.105969C39.8501 0.078321 38.5085 0.5941 37.498 1.54297C36.5493 2.55341 36.0342 3.89527 36.063 5.28097C35.979 6.75397 35.979 11.168 36.063 12.641C36.0335 14.0279 36.5512 15.3707 37.504 16.379C38.5146 17.3273 39.8553 17.8439 41.241 17.819C42.714 17.903 47.128 17.903 48.601 17.819C49.9879 17.8484 51.3307 17.3308 52.339 16.378C53.2865 15.3671 53.8018 14.0262 53.775 12.641C53.863 11.168 53.863 6.75797 53.775 5.28497ZM51.875 14.219C51.7237 14.6039 51.4946 14.9536 51.2021 15.2461C50.9096 15.5386 50.56 15.7676 50.175 15.919C49.001 16.385 46.214 16.277 44.917 16.277C43.62 16.277 40.829 16.377 39.659 15.919C39.274 15.7676 38.9244 15.5386 38.6319 15.2461C38.3394 14.9536 38.1103 14.6039 37.959 14.219C37.493 13.045 37.601 10.258 37.601 8.96097C37.601 7.66397 37.501 4.87297 37.959 3.70297C38.1103 3.31801 38.3394 2.96836 38.6319 2.67587C38.9244 2.38338 39.274 2.15431 39.659 2.00297C40.833 1.53697 43.62 1.64497 44.917 1.64497C46.214 1.64497 49.005 1.54497 50.175 2.00297C50.56 2.15431 50.9096 2.38338 51.2021 2.67587C51.4946 2.96836 51.7237 3.31801 51.875 3.70297C52.341 4.87697 52.233 7.66397 52.233 8.96097C52.233 10.258 52.343 13.051 51.875 14.219Z" fill="white"/>
<path d="M98.285 4.81115C98.298 4.99215 98.298 5.17315 98.298 5.35415C98.3092 6.91789 98.0094 8.46826 97.4161 9.91514C96.8229 11.362 95.9479 12.6765 94.8422 13.7823C93.7364 14.8881 92.4219 15.763 90.975 16.3563C89.5281 16.9496 87.9777 17.2493 86.414 17.2381C84.14 17.2442 81.9127 16.5931 80 15.3631C80.335 15.4001 80.6719 15.4175 81.009 15.4151C82.8891 15.4199 84.7161 14.7911 86.195 13.6301C85.3231 13.614 84.4779 13.3258 83.7778 12.8059C83.0777 12.2859 82.5575 11.5602 82.29 10.7301C82.551 10.7716 82.8147 10.7933 83.079 10.7951C83.4502 10.7942 83.8198 10.7465 84.179 10.6531C83.2331 10.4618 82.3826 9.94888 81.772 9.20145C81.1615 8.45402 80.8286 7.51823 80.83 6.55315V6.50415C81.4088 6.82707 82.0557 7.00867 82.718 7.03415C81.8316 6.44288 81.2042 5.53562 80.9639 4.49753C80.7236 3.45944 80.8885 2.36878 81.425 1.44815C82.4741 2.73945 83.7829 3.79585 85.2665 4.54885C86.7501 5.30185 88.3754 5.73464 90.037 5.81915C89.9711 5.50439 89.9376 5.18372 89.937 4.86215C89.9391 4.02563 90.192 3.20896 90.6631 2.51772C91.1342 1.82648 91.8019 1.29246 92.5797 0.984681C93.3575 0.676905 94.2098 0.609535 95.0263 0.791276C95.8429 0.973017 96.5861 1.39551 97.16 2.00415C98.0954 1.82389 98.9924 1.48248 99.811 0.995145C99.4992 1.95964 98.8464 2.77737 97.975 3.29515C98.8044 3.20058 99.6151 2.9825 100.38 2.64814C99.8081 3.48087 99.0999 4.21112 98.285 4.80814V4.81115Z" fill="white"/>
</svg>
