<svg width="15" height="13" viewBox="0 0 15 13" fill="none" xmlns="http://www.w3.org/2000/svg">
<path d="M12.7939 4.87515C12.9176 4.87515 13.0384 4.84338 13.1412 4.78386C13.244 4.72435 13.3241 4.63975 13.3714 4.54077C13.4187 4.4418 13.431 4.33288 13.4069 4.22781C13.3828 4.12274 13.3233 4.02622 13.2359 3.95047C13.1485 3.87472 13.0371 3.82313 12.9159 3.80223C12.7946 3.78133 12.669 3.79205 12.5548 3.83305C12.4406 3.87405 12.3429 3.94347 12.2743 4.03255C12.2056 4.12163 12.1689 4.22635 12.1689 4.33349C12.1689 4.47714 12.2348 4.61492 12.352 4.7165C12.4692 4.81808 12.6282 4.87515 12.7939 4.87515ZM10.9189 4.87515C11.0426 4.87515 11.1634 4.84338 11.2662 4.78386C11.369 4.72435 11.4491 4.63975 11.4964 4.54077C11.5437 4.4418 11.556 4.33288 11.5319 4.22781C11.5078 4.12274 11.4483 4.02622 11.3609 3.95047C11.2735 3.87472 11.1621 3.82313 11.0409 3.80223C10.9196 3.78133 10.794 3.79205 10.6798 3.83305C10.5656 3.87405 10.4679 3.94347 10.3993 4.03255C10.3306 4.12163 10.2939 4.22635 10.2939 4.33349C10.2939 4.47714 10.3598 4.61492 10.477 4.7165C10.5942 4.81808 10.7532 4.87515 10.9189 4.87515ZM9.04394 4.87515C9.16755 4.87515 9.28839 4.84338 9.39117 4.78386C9.49395 4.72435 9.57406 4.63975 9.62137 4.54077C9.66867 4.4418 9.68105 4.33288 9.65693 4.22781C9.63282 4.12274 9.57329 4.02622 9.48588 3.95047C9.39847 3.87472 9.28711 3.82313 9.16587 3.80223C9.04463 3.78133 8.91897 3.79205 8.80476 3.83305C8.69056 3.87405 8.59295 3.94347 8.52427 4.03255C8.4556 4.12163 8.41894 4.22635 8.41894 4.33349C8.41894 4.40462 8.43511 4.47505 8.46652 4.54077C8.49793 4.60649 8.54396 4.6662 8.602 4.7165C8.66004 4.7668 8.72894 4.8067 8.80476 4.83392C8.88059 4.86114 8.96186 4.87515 9.04394 4.87515ZM11.8189 7.04182C11.6814 7.04182 11.5377 7.0039 11.4002 6.97682C11.1217 6.92364 10.8481 6.85304 10.5814 6.76557C10.2915 6.67415 9.97278 6.6789 9.68663 6.7789C9.40049 6.8789 9.16712 7.06708 9.03144 7.30724L8.89394 7.55099C8.28426 7.25622 7.72299 6.89186 7.22519 6.46765C6.73811 6.03644 6.31791 5.55209 5.97519 5.02682L6.25019 4.87515C6.52729 4.75757 6.74443 4.55531 6.85981 4.30732C6.97519 4.05932 6.98067 3.7831 6.87519 3.53182C6.77595 3.30021 6.69453 3.06317 6.63144 2.82224C6.60019 2.69765 6.57519 2.57849 6.55644 2.4539C6.48054 2.07236 6.24996 1.72685 5.9062 1.47957C5.56245 1.2323 5.12813 1.09952 4.68144 1.10515H2.80644C2.54222 1.10485 2.28091 1.15295 2.03964 1.2463C1.79837 1.33965 1.58259 1.47614 1.40644 1.64682C1.2275 1.8215 1.09411 2.02757 1.01538 2.25098C0.936642 2.47438 0.914408 2.70988 0.950191 2.9414C1.27939 5.20938 2.47043 7.31784 4.33544 8.93419C6.20045 10.5505 8.63329 11.5828 11.2502 11.8681C11.3313 11.8734 11.4128 11.8734 11.4939 11.8681C11.9912 11.8681 12.4681 11.6969 12.8198 11.3921C13.1714 11.0874 13.3689 10.674 13.3689 10.2431V8.61807C13.3624 8.2401 13.2041 7.87592 12.9212 7.58822C12.6383 7.30052 12.2485 7.1073 11.8189 7.04182ZM12.1252 10.2918C12.1262 10.3703 12.1075 10.4481 12.0704 10.5197C12.0333 10.5914 11.9787 10.6552 11.9103 10.7067C11.842 10.7582 11.7615 10.7962 11.6745 10.8181C11.5875 10.84 11.496 10.8453 11.4064 10.8335C9.07279 10.5696 6.90463 9.64621 5.23769 8.2064C3.57207 6.75195 2.50847 4.86076 2.21269 2.82765C2.19911 2.74821 2.20609 2.66714 2.23311 2.59032C2.26014 2.5135 2.30653 2.44285 2.36894 2.38349C2.42681 2.32639 2.4979 2.28048 2.57758 2.24875C2.65726 2.21702 2.74376 2.20018 2.83144 2.19932H4.70644C4.85178 2.19652 4.99371 2.23771 5.10778 2.31582C5.22186 2.39392 5.30095 2.50404 5.33144 2.62724C5.35644 2.77529 5.38769 2.92154 5.42519 3.06599C5.49739 3.35152 5.59348 3.63212 5.71269 3.90557L4.83769 4.25765C4.76288 4.2874 4.69558 4.32966 4.63966 4.38202C4.58375 4.43437 4.54032 4.49578 4.51186 4.56272C4.4834 4.62966 4.47049 4.70081 4.47385 4.77208C4.47721 4.84336 4.49678 4.91336 4.53144 4.97807C5.43094 6.64789 6.97972 7.99017 8.90644 8.76974C9.0586 8.82391 9.22928 8.82391 9.38144 8.76974C9.53653 8.71971 9.6624 8.61841 9.73144 8.48807L10.1252 7.72974C10.4483 7.82988 10.7781 7.91308 11.1127 7.9789C11.2752 8.0114 11.4502 8.03849 11.6189 8.06015C11.7599 8.08767 11.8856 8.15668 11.9744 8.25544C12.0633 8.3542 12.11 8.47661 12.1064 8.60182L12.1252 10.2918Z" fill="white"/>
</svg>
