<svg width="54" height="57" viewBox="0 0 54 57" fill="none" xmlns="http://www.w3.org/2000/svg">
<path d="M42.75 28.5H27V11.875C27 10.45 26.1 9.5 24.75 9.5C13.5 9.5 4.5 19 4.5 30.875C4.5 42.75 13.5 52.25 24.75 52.25C36 52.25 45 42.75 45 30.875C45 29.45 44.1 28.5 42.75 28.5ZM27 47.2625C18.45 48.6875 10.35 42.275 9.225 33.25C7.875 24.225 13.95 15.675 22.5 14.4875V30.875C22.5 32.3 23.4 33.25 24.75 33.25H40.275C39.375 40.6125 33.975 46.3125 27 47.2625ZM33.75 4.75C32.4 4.75 31.5 5.7 31.5 7.125V21.375C31.5 22.8 32.4 23.75 33.75 23.75H47.25C48.6 23.75 49.5 22.8 49.5 21.375C49.5 12.1125 42.525 4.75 33.75 4.75ZM36 19V9.7375C40.5 10.6875 43.875 14.25 44.775 19H36Z" fill="white"/>
</svg>
