<svg width="139" height="131" viewBox="0 0 139 131" fill="none" xmlns="http://www.w3.org/2000/svg">
<path d="M110.041 65.4994H69.4997V27.291C69.4997 24.016 67.183 21.8327 63.708 21.8327C34.7497 21.8327 11.583 43.666 11.583 70.9577C11.583 98.2494 34.7497 120.083 63.708 120.083C92.6663 120.083 115.833 98.2494 115.833 70.9577C115.833 67.6827 113.516 65.4994 110.041 65.4994ZM69.4997 108.62C47.4913 111.895 26.6413 97.1577 23.7455 76.416C20.2705 55.6744 35.908 36.0243 57.9163 33.2952V70.9577C57.9163 74.2327 60.233 76.416 63.708 76.416H103.671C101.354 93.3369 87.4538 106.437 69.4997 108.62ZM86.8747 10.916C83.3997 10.916 81.083 13.0993 81.083 16.3743V49.1244C81.083 52.3993 83.3997 54.5827 86.8747 54.5827H121.625C125.1 54.5827 127.416 52.3993 127.416 49.1244C127.416 27.8368 109.462 10.916 86.8747 10.916ZM92.6663 43.666V22.3785C104.25 24.5618 112.937 32.7493 115.254 43.666H92.6663Z" fill="white"/>
</svg>
