<svg width="132" height="146" viewBox="0 0 132 146" fill="none" xmlns="http://www.w3.org/2000/svg">
<path d="M63.25 121.666H30.25C28.7913 121.666 27.3924 121.025 26.3609 119.884C25.3295 118.743 24.75 117.196 24.75 115.583V30.416C24.75 28.8026 25.3295 27.2553 26.3609 26.1145C27.3924 24.9736 28.7913 24.3327 30.25 24.3327H57.75V42.5827C57.75 47.4229 59.4884 52.0648 62.5827 55.4874C65.6771 58.9099 69.8739 60.8327 74.25 60.8327H90.75V91.2494C90.75 92.8628 91.3295 94.4101 92.3609 95.5509C93.3924 96.6918 94.7913 97.3327 96.25 97.3327C97.7087 97.3327 99.1076 96.6918 100.139 95.5509C101.171 94.4101 101.75 92.8628 101.75 91.2494V54.7494C101.75 54.7494 101.75 54.7493 101.75 54.3843C101.693 53.8255 101.582 53.2749 101.42 52.7419V52.1944C101.156 51.5689 100.803 50.9939 100.375 50.491L67.375 13.991C66.9203 13.5178 66.4005 13.1277 65.835 12.8352C65.653 12.8 65.4669 12.8 65.285 12.8352C64.7502 12.5189 64.1754 12.2933 63.58 12.166H30.25C25.8739 12.166 21.6771 14.0888 18.5827 17.5113C15.4884 20.9339 13.75 25.5758 13.75 30.416V115.583C13.75 120.423 15.4884 125.065 18.5827 128.487C21.6771 131.91 25.8739 133.833 30.25 133.833H63.25C64.7087 133.833 66.1076 133.192 67.1391 132.051C68.1705 130.91 68.75 129.363 68.75 127.749C68.75 126.136 68.1705 124.589 67.1391 123.448C66.1076 122.307 64.7087 121.666 63.25 121.666ZM68.75 32.9102L82.995 48.666H74.25C72.7913 48.666 71.3924 48.0251 70.3609 46.8842C69.3295 45.7434 68.75 44.1961 68.75 42.5827V32.9102ZM41.25 85.166H74.25C75.7087 85.166 77.1076 84.5251 78.1391 83.3842C79.1705 82.2434 79.75 80.6961 79.75 79.0827C79.75 77.4693 79.1705 75.922 78.1391 74.7811C77.1076 73.6403 75.7087 72.9994 74.25 72.9994H41.25C39.7913 72.9994 38.3924 73.6403 37.3609 74.7811C36.3295 75.922 35.75 77.4693 35.75 79.0827C35.75 80.6961 36.3295 82.2434 37.3609 83.3842C38.3924 84.5251 39.7913 85.166 41.25 85.166ZM63.25 97.3327H41.25C39.7913 97.3327 38.3924 97.9736 37.3609 99.1144C36.3295 100.255 35.75 101.803 35.75 103.416C35.75 105.029 36.3295 106.577 37.3609 107.718C38.3924 108.858 39.7913 109.499 41.25 109.499H63.25C64.7087 109.499 66.1076 108.858 67.1391 107.718C68.1705 106.577 68.75 105.029 68.75 103.416C68.75 101.803 68.1705 100.255 67.1391 99.1144C66.1076 97.9736 64.7087 97.3327 63.25 97.3327ZM41.25 60.8327H46.75C48.2087 60.8327 49.6076 60.1918 50.6391 59.0509C51.6705 57.9101 52.25 56.3628 52.25 54.7494C52.25 53.1359 51.6705 51.5886 50.6391 50.4478C49.6076 49.3069 48.2087 48.666 46.75 48.666H41.25C39.7913 48.666 38.3924 49.3069 37.3609 50.4478C36.3295 51.5886 35.75 53.1359 35.75 54.7494C35.75 56.3628 36.3295 57.9101 37.3609 59.0509C38.3924 60.1918 39.7913 60.8327 41.25 60.8327ZM116.655 99.0969C116.144 98.5267 115.535 98.0741 114.865 97.7653C114.195 97.4564 113.476 97.2974 112.75 97.2974C112.024 97.2974 111.305 97.4564 110.635 97.7653C109.965 98.0741 109.356 98.5267 108.845 99.0969L90.75 119.172L83.655 111.264C83.1422 110.696 82.5334 110.246 81.8634 109.939C81.1934 109.632 80.4752 109.474 79.75 109.474C79.0248 109.474 78.3066 109.632 77.6366 109.939C76.9666 110.246 76.3578 110.696 75.845 111.264C75.3322 111.831 74.9254 112.504 74.6479 113.245C74.3703 113.986 74.2275 114.781 74.2275 115.583C74.2275 116.385 74.3703 117.179 74.6479 117.92C74.9254 118.661 75.3322 119.335 75.845 119.902L86.845 132.069C87.3563 132.639 87.9646 133.091 88.6348 133.4C89.3051 133.709 90.0239 133.868 90.75 133.868C91.4761 133.868 92.1949 133.709 92.8652 133.4C93.5354 133.091 94.1437 132.639 94.655 132.069L116.655 107.735C117.171 107.17 117.58 106.497 117.859 105.756C118.138 105.014 118.282 104.219 118.282 103.416C118.282 102.613 118.138 101.818 117.859 101.077C117.58 100.335 117.171 99.6624 116.655 99.0969Z" fill="white"/>
</svg>
