<svg width="54" height="57" viewBox="0 0 54 57" fill="none" xmlns="http://www.w3.org/2000/svg">
<path d="M25.875 47.5H12.375C11.7783 47.5 11.206 47.2498 10.784 46.8044C10.3621 46.359 10.125 45.7549 10.125 45.125V11.875C10.125 11.2451 10.3621 10.641 10.784 10.1956C11.206 9.75022 11.7783 9.5 12.375 9.5H23.625V16.625C23.625 18.5147 24.3362 20.3269 25.602 21.6631C26.8679 22.9993 28.5848 23.75 30.375 23.75H37.125V35.625C37.125 36.2549 37.3621 36.859 37.784 37.3044C38.206 37.7498 38.7783 38 39.375 38C39.9717 38 40.544 37.7498 40.966 37.3044C41.3879 36.859 41.625 36.2549 41.625 35.625V21.375C41.625 21.375 41.625 21.375 41.625 21.2325C41.6016 21.0143 41.5563 20.7994 41.49 20.5913V20.3775C41.3818 20.1333 41.2375 19.9088 41.0625 19.7125V19.7125L27.5625 5.4625C27.3765 5.27776 27.1638 5.12544 26.9325 5.01125C26.8581 4.9975 26.7819 4.9975 26.7075 5.01125C26.4887 4.88776 26.2536 4.79969 26.01 4.75H12.375C10.5848 4.75 8.8679 5.50067 7.60203 6.83686C6.33616 8.17306 5.625 9.98533 5.625 11.875V45.125C5.625 47.0147 6.33616 48.8269 7.60203 50.1631C8.8679 51.4993 10.5848 52.25 12.375 52.25H25.875C26.4717 52.25 27.044 51.9998 27.466 51.5544C27.8879 51.109 28.125 50.5049 28.125 49.875C28.125 49.2451 27.8879 48.641 27.466 48.1956C27.044 47.7502 26.4717 47.5 25.875 47.5ZM28.125 12.8487L33.9525 19H30.375C29.7783 19 29.206 18.7498 28.784 18.3044C28.3621 17.859 28.125 17.2549 28.125 16.625V12.8487ZM16.875 33.25H30.375C30.9717 33.25 31.544 32.9998 31.966 32.5544C32.3879 32.109 32.625 31.5049 32.625 30.875C32.625 30.2451 32.3879 29.641 31.966 29.1956C31.544 28.7502 30.9717 28.5 30.375 28.5H16.875C16.2783 28.5 15.706 28.7502 15.284 29.1956C14.8621 29.641 14.625 30.2451 14.625 30.875C14.625 31.5049 14.8621 32.109 15.284 32.5544C15.706 32.9998 16.2783 33.25 16.875 33.25ZM25.875 38H16.875C16.2783 38 15.706 38.2502 15.284 38.6956C14.8621 39.141 14.625 39.7451 14.625 40.375C14.625 41.0049 14.8621 41.609 15.284 42.0544C15.706 42.4998 16.2783 42.75 16.875 42.75H25.875C26.4717 42.75 27.044 42.4998 27.466 42.0544C27.8879 41.609 28.125 41.0049 28.125 40.375C28.125 39.7451 27.8879 39.141 27.466 38.6956C27.044 38.2502 26.4717 38 25.875 38ZM16.875 23.75H19.125C19.7217 23.75 20.294 23.4998 20.716 23.0544C21.1379 22.609 21.375 22.0049 21.375 21.375C21.375 20.7451 21.1379 20.141 20.716 19.6956C20.294 19.2502 19.7217 19 19.125 19H16.875C16.2783 19 15.706 19.2502 15.284 19.6956C14.8621 20.141 14.625 20.7451 14.625 21.375C14.625 22.0049 14.8621 22.609 15.284 23.0544C15.706 23.4998 16.2783 23.75 16.875 23.75ZM47.7225 38.6888C47.5133 38.4661 47.2645 38.2895 46.9903 38.1689C46.7161 38.0483 46.422 37.9862 46.125 37.9862C45.828 37.9862 45.5339 38.0483 45.2597 38.1689C44.9855 38.2895 44.7367 38.4661 44.5275 38.6888L37.125 46.5263L34.2225 43.4388C34.0127 43.2173 33.7637 43.0417 33.4896 42.9218C33.2155 42.802 32.9217 42.7403 32.625 42.7403C32.3283 42.7403 32.0345 42.802 31.7604 42.9218C31.4863 43.0417 31.2373 43.2173 31.0275 43.4388C30.8177 43.6602 30.6513 43.9231 30.5378 44.2124C30.4242 44.5017 30.3658 44.8118 30.3658 45.125C30.3658 45.4382 30.4242 45.7483 30.5378 46.0376C30.6513 46.3269 30.8177 46.5898 31.0275 46.8112L35.5275 51.5612C35.7367 51.7839 35.9855 51.9605 36.2597 52.0811C36.5339 52.2017 36.828 52.2638 37.125 52.2638C37.422 52.2638 37.7161 52.2017 37.9903 52.0811C38.2645 51.9605 38.5133 51.7839 38.7225 51.5612L47.7225 42.0612C47.9334 41.8405 48.1008 41.5778 48.215 41.2884C48.3292 40.999 48.388 40.6885 48.388 40.375C48.388 40.0615 48.3292 39.751 48.215 39.4616C48.1008 39.1722 47.9334 38.9095 47.7225 38.6888V38.6888Z" fill="white"/>
</svg>
