<svg width="16" height="13" viewBox="0 0 16 13" fill="none" xmlns="http://www.w3.org/2000/svg">
<path d="M4.66536 5.41683C4.53351 5.41683 4.40462 5.4486 4.29498 5.50812C4.18535 5.56764 4.0999 5.65223 4.04944 5.75121C3.99899 5.85019 3.98578 5.9591 4.01151 6.06417C4.03723 6.16924 4.10073 6.26576 4.19396 6.34151C4.2872 6.41727 4.40598 6.46885 4.5353 6.48975C4.66463 6.51065 4.79867 6.49993 4.92049 6.45893C5.0423 6.41793 5.14642 6.34851 5.21968 6.25943C5.29293 6.17035 5.33203 6.06563 5.33203 5.9585C5.33203 5.81484 5.26179 5.67706 5.13677 5.57548C5.01174 5.4739 4.84218 5.41683 4.66536 5.41683ZM12.6654 3.25016H11.9987V1.62516C11.9987 1.4815 11.9285 1.34373 11.8034 1.24215C11.6784 1.14056 11.5088 1.0835 11.332 1.0835H4.66536C4.48855 1.0835 4.31898 1.14056 4.19396 1.24215C4.06894 1.34373 3.9987 1.4815 3.9987 1.62516V3.25016H3.33203C2.8016 3.25016 2.29289 3.42137 1.91782 3.72611C1.54275 4.03086 1.33203 4.44419 1.33203 4.87516V8.12516C1.33203 8.55614 1.54275 8.96946 1.91782 9.27421C2.29289 9.57896 2.8016 9.75016 3.33203 9.75016H3.9987V11.3752C3.9987 11.5188 4.06894 11.6566 4.19396 11.7582C4.31898 11.8598 4.48855 11.9168 4.66536 11.9168H11.332C11.5088 11.9168 11.6784 11.8598 11.8034 11.7582C11.9285 11.6566 11.9987 11.5188 11.9987 11.3752V9.75016H12.6654C13.1958 9.75016 13.7045 9.57896 14.0796 9.27421C14.4547 8.96946 14.6654 8.55614 14.6654 8.12516V4.87516C14.6654 4.44419 14.4547 4.03086 14.0796 3.72611C13.7045 3.42137 13.1958 3.25016 12.6654 3.25016ZM5.33203 2.16683H10.6654V3.25016H5.33203V2.16683ZM10.6654 10.8335H5.33203V8.66683H10.6654V10.8335ZM13.332 8.12516C13.332 8.26882 13.2618 8.4066 13.1368 8.50818C13.0117 8.60976 12.8422 8.66683 12.6654 8.66683H11.9987V8.12516C11.9987 7.9815 11.9285 7.84373 11.8034 7.74215C11.6784 7.64056 11.5088 7.5835 11.332 7.5835H4.66536C4.48855 7.5835 4.31898 7.64056 4.19396 7.74215C4.06894 7.84373 3.9987 7.9815 3.9987 8.12516V8.66683H3.33203C3.15522 8.66683 2.98565 8.60976 2.86063 8.50818C2.7356 8.4066 2.66536 8.26882 2.66536 8.12516V4.87516C2.66536 4.7315 2.7356 4.59373 2.86063 4.49215C2.98565 4.39056 3.15522 4.3335 3.33203 4.3335H12.6654C12.8422 4.3335 13.0117 4.39056 13.1368 4.49215C13.2618 4.59373 13.332 4.7315 13.332 4.87516V8.12516Z" fill="white"/>
</svg>
