<svg width="58" height="54" viewBox="0 0 58 54" fill="none" xmlns="http://www.w3.org/2000/svg">
<path d="M36.0152 53.3665H21.9919V47.9418C20.6881 47.5521 19.4215 47.0598 18.2056 46.4702L14.0454 50.2917L4.11228 40.9796L8.20239 37.1581C7.56926 36.0181 7.04519 34.8274 6.63643 33.6002H0.957031V20.4226H6.72994C7.13448 19.1939 7.6587 18.0029 8.2959 16.8647L4.20579 13.0212L14.1389 3.70902L18.2056 7.55248C19.4163 6.94661 20.6838 6.44671 21.9919 6.05903V0.65625H36.0152V6.05903C37.3233 6.44671 38.5907 6.94661 39.8014 7.55248L43.8916 3.70902L53.8014 13.0212L49.7113 16.8647C50.3462 18.0067 50.8778 19.1969 51.3005 20.4226H57.0501V33.6002H51.3005C50.8736 34.8244 50.3421 36.0143 49.7113 37.1581L53.8014 40.9796L43.8916 50.2917L39.7547 46.4702C38.5389 47.0598 37.2723 47.5521 35.9685 47.9418L36.0152 53.3665ZM26.6663 48.974H31.3408V44.5815L33.1638 44.1861C35.2084 43.7723 37.1615 43.0293 38.9367 41.9898L40.526 41.0675L43.8916 44.2081L47.187 41.1114L43.8214 37.9487L44.8265 36.4773C45.9252 34.7978 46.7153 32.9565 47.1637 31.0305L47.561 29.3394H52.2354V24.9469H47.561L47.1637 23.2338C46.7153 21.3079 45.9252 19.4666 44.8265 17.7871L43.8214 16.3156L47.187 13.153L43.8916 9.96838L40.526 13.131L38.9367 12.1866C37.1566 11.1564 35.2052 10.414 33.1638 9.99036L31.3408 9.61697V5.22444H26.6663V9.61697L24.8433 9.99036C22.8032 10.4179 20.8525 11.1601 19.0704 12.1866L17.4811 13.131L14.0454 9.96838L10.7265 13.0651L14.0921 16.2277L13.0872 17.6992C11.9884 19.3787 11.1983 21.22 10.7499 23.1459L10.3293 24.859H5.65484V29.2516H10.3293L10.7499 30.9426C11.1983 32.8686 11.9884 34.7099 13.0872 36.3894L14.0921 37.8609L10.7265 41.0235L14.0454 44.1202L17.3876 40.9796L18.9769 41.902C20.7539 42.9379 22.7064 43.6807 24.7498 44.0983L26.5728 44.4936L26.6663 48.974Z" fill="white"/>
</svg>
