<svg width="47" height="48" viewBox="0 0 47 48" fill="none" xmlns="http://www.w3.org/2000/svg">
<path d="M29.375 48H17.625V43.06C16.5325 42.7051 15.4713 42.2569 14.4525 41.72L10.9667 45.2L2.64376 36.72L6.07085 33.24C5.54034 32.2018 5.10123 31.1176 4.75874 30H0V18H4.83709C5.17605 16.8811 5.61529 15.7965 6.1492 14.76L2.72211 11.26L11.045 2.77997L14.4525 6.27997C15.4669 5.72825 16.5289 5.27301 17.625 4.91998V0H29.375V4.91998C30.4711 5.27301 31.5331 5.72825 32.5475 6.27997L35.9746 2.77997L44.278 11.26L40.8509 14.76C41.3829 15.8 41.8283 16.8838 42.1825 18H47V30H42.1825C41.8248 31.1149 41.3795 32.1984 40.8509 33.24L44.278 36.72L35.9746 45.2L32.5083 41.72C31.4896 42.2569 30.4283 42.7051 29.3359 43.06L29.375 48ZM21.5417 44H25.4583V40L26.9858 39.64C28.6991 39.2631 30.3355 38.5865 31.8229 37.64L33.1546 36.8L35.9746 39.66L38.7358 36.84L35.9158 33.96L36.758 32.62C37.6786 31.0906 38.3406 29.4138 38.7163 27.66L39.0492 26.12H42.9658V22.12H39.0492L38.7163 20.56C38.3406 18.8062 37.6786 17.1294 36.758 15.6L35.9158 14.26L38.7358 11.38L35.9746 8.47998L33.1546 11.36L31.8229 10.5C30.3314 9.56185 28.6963 8.8858 26.9858 8.5L25.4583 8.15997V4.15997H21.5417V8.15997L20.0142 8.5C18.3048 8.88938 16.6703 9.56519 15.1771 10.5L13.8454 11.36L10.9667 8.47998L8.18582 11.3L11.0058 14.18L10.1638 15.52C9.24312 17.0494 8.5811 18.7261 8.20542 20.48L7.85294 22.04H3.93627V26.04H7.85294L8.20542 27.58C8.5811 29.3338 9.24312 31.0106 10.1638 32.54L11.0058 33.88L8.18582 36.76L10.9667 39.58L13.7671 36.72L15.0987 37.56C16.5877 38.5033 18.2236 39.1797 19.9358 39.56L21.4633 39.92L21.5417 44Z" fill="#98402E"/>
</svg>
