<svg width="9" height="9" viewBox="0 0 9 9" fill="none" xmlns="http://www.w3.org/2000/svg">
<path d="M4.5 9C3.60998 9 2.73994 8.73608 1.99992 8.24161C1.2599 7.74715 0.68312 7.04435 0.342525 6.22208C0.00193071 5.39981 -0.0871586 4.49501 0.086475 3.6221C0.260109 2.74918 0.688672 1.94736 1.31801 1.31802C1.94735 0.688686 2.74917 0.260102 3.62208 0.0864682C4.495 -0.0871652 5.3998 0.00194979 6.22207 0.342544C7.04434 0.683138 7.74713 1.25991 8.2416 1.99993C8.73607 2.73996 9 3.60999 9 4.5C9 5.69348 8.5259 6.83807 7.68198 7.68198C6.83807 8.52589 5.69347 9 4.5 9ZM4.5 1.125C3.83248 1.125 3.17995 1.32294 2.62494 1.69379C2.06992 2.06464 1.63735 2.59174 1.3819 3.20844C1.12646 3.82514 1.05962 4.50374 1.18985 5.15843C1.32007 5.81312 1.64152 6.41448 2.11352 6.88649C2.58553 7.35849 3.18688 7.67993 3.84157 7.81015C4.49626 7.94038 5.17484 7.87354 5.79154 7.61809C6.40824 7.36265 6.93537 6.93007 7.30622 6.37505C7.67707 5.82003 7.875 5.16751 7.875 4.5C7.875 3.6049 7.5194 2.74645 6.88647 2.11351C6.25353 1.48058 5.3951 1.125 4.5 1.125Z" fill="#98402E"/>
</svg>
